<?xml version="1.0" encoding="utf-8"?>
<!-- Generator: Adobe Illustrator 21.1.0, SVG Export Plug-In . SVG Version: 6.00 Build 0)  -->
<svg version="1.1" id="Layer_1" xmlns="http://www.w3.org/2000/svg" xmlns:xlink="http://www.w3.org/1999/xlink" x="0px" y="0px"
	 viewBox="0 0 30 30" style="enable-background:new 0 0 30 30;" xml:space="preserve">
<g>
	<path d="M26.3,10.6c0,2.4-0.6,4.4-1.8,6.2c-2.8,4.3-5.7,8.5-8.5,12.8c-0.4,0.6-0.9,0.6-1.2,0C11.9,25.3,9,21,6.2,16.8
		C2.6,11.4,4.8,3.8,10.7,1c6.5-3,14,0.8,15.4,7.8C26.2,9.5,26.3,10.2,26.3,10.6z M15.4,28.4c0.1-0.1,0.2-0.2,0.2-0.3
		c2.6-4,5.3-7.9,7.9-11.9c1.4-2.1,1.9-4.4,1.5-6.8c-0.9-5.6-6.3-9.2-11.8-8c-6.6,1.5-9.6,9.2-5.9,14.8c2.6,3.9,5.3,7.9,7.9,11.8
		C15.2,28.2,15.3,28.3,15.4,28.4z"/>
	<path d="M19.1,10.9c0,2-1.7,3.7-3.7,3.7c-2,0-3.7-1.7-3.7-3.7c0-2,1.7-3.7,3.7-3.7C17.4,7.2,19.1,8.9,19.1,10.9z M12.9,10.9
		c0,1.4,1.1,2.6,2.5,2.6c1.4,0,2.5-1.1,2.5-2.5c0-1.4-1.1-2.6-2.5-2.6C14,8.3,12.9,9.5,12.9,10.9z"/>
</g>
</svg>
