<?xml version="1.0" encoding="utf-8"?>
<!-- Generator: Adobe Illustrator 21.1.0, SVG Export Plug-In . SVG Version: 6.00 Build 0)  -->
<svg version="1.1" id="Layer_1" xmlns="http://www.w3.org/2000/svg" xmlns:xlink="http://www.w3.org/1999/xlink" x="0px" y="0px"
	 viewBox="0 0 30 30" style="enable-background:new 0 0 30 30;" xml:space="preserve">
<g>
	<path d="M0.1,6.5c0-1.3,0.4-2.5,1.4-3.4C2.2,2.3,3,1.5,3.8,0.8c1.1-1.1,2.8-1.1,3.9,0c1,0.9,1.9,1.9,2.9,2.9
		c1.2,1.2,1.2,2.9,0.1,4.1C9.8,8.7,9.2,9.7,9.2,11c0,0.5,0.1,1,0.3,1.4c1.5,3.7,4.1,6.4,7.8,8c1.8,0.8,3.4,0.5,4.8-0.9
		c0.5-0.4,1-0.8,1.6-0.9c0.9-0.2,1.7,0.1,2.4,0.7c1,1,2.1,2,3.1,3.1c1.1,1.1,1.1,2.9,0,4c-0.7,0.7-1.4,1.5-2.2,2.1
		c-1.7,1.6-4.2,1.9-6.2,0.6C12.7,24,6.1,17.4,0.9,9.3C0.4,8.4,0.1,7.5,0.1,6.5z M9.5,7.4C7.7,5.6,5.9,3.8,4.1,2
		c-0.5,0.5-1,1-1.5,1.6C1,5.1,0.8,6.9,2,8.7c1.8,2.9,3.9,5.6,6.1,8.1c3.9,4.4,8.3,8.1,13.2,11.2c1.5,0.9,3.3,0.9,4.5-0.1
		c0.8-0.6,1.4-1.4,2-2.1c-1.7-1.7-3.5-3.5-5.3-5.3c-1.6,1.4-3.5,1.8-5.6,1c-3.9-1.6-6.7-4.3-8.4-8.1c-0.3-0.6-0.5-1.2-0.6-1.8
		C7.9,9.9,8.4,8.5,9.5,7.4z M4.7,1.4C6.5,3.2,8.2,4.9,10,6.7c0.5-0.6,0.5-1.4-0.1-2.1c-1-1-2-2-3-3C6.2,1,5.3,0.9,4.7,1.4z M23.2,20
		c1.8,1.8,3.5,3.5,5.3,5.3c0.5-0.7,0.5-1.4,0-2c-1-1.1-2.1-2.2-3.2-3.2C24.7,19.5,23.8,19.5,23.2,20z"/>
</g>
</svg>
