<?xml version="1.0" encoding="utf-8"?>
<!-- Generator: Adobe Illustrator 21.1.0, SVG Export Plug-In . SVG Version: 6.00 Build 0)  -->
<svg version="1.1" id="Layer_1" xmlns="http://www.w3.org/2000/svg" xmlns:xlink="http://www.w3.org/1999/xlink" x="0px" y="0px"
	 viewBox="0 0 30 30" style="enable-background:new 0 0 30 30;" xml:space="preserve">
<g>
	<path d="M14.8,12.2c-3,0-5.5-2.4-5.5-5.5s2.4-5.5,5.5-5.5s5.5,2.4,5.5,5.5S17.8,12.2,14.8,12.2z M14.8,2.7c-2.2,0-4,1.8-4,4
		s1.8,4,4,4s4-1.8,4-4S17,2.7,14.8,2.7z"/>
	<path d="M13.7,25.9h-7c-0.6,0-1.2-0.2-1.6-0.6c-0.3-0.3-0.4-0.6-0.4-1l0.1-3.2c0-4.1,4.3-7.2,10-7.2s10,3.1,10,7.3l0,0.8
		c0,0.4-0.3,0.7-0.7,0.7h0c-0.4,0-0.7-0.3-0.7-0.7l0-0.8c0-3.3-3.7-5.8-8.6-5.8s-8.6,2.5-8.6,5.8l-0.1,3.2c0.1,0.1,0.2,0.2,0.6,0.2
		h7c0.4,0,0.7,0.3,0.7,0.7C14.4,25.6,14.1,25.9,13.7,25.9z"/>
	<path d="M24.8,25.2c0,0.4-0.3,0.7-0.7,0.7h-2.7v2.7c0,0.4-0.3,0.7-0.7,0.7S20,29,20,28.6v-2.7h-2.7c-0.4,0-0.7-0.3-0.7-0.7
		c0-0.4,0.3-0.7,0.7-0.7H20v-2.7c0-0.4,0.3-0.7,0.7-0.7s0.7,0.3,0.7,0.7v2.7h2.7C24.5,24.5,24.8,24.8,24.8,25.2z"/>
</g>
</svg>
